<?xml version="1.0" encoding="UTF-8"?>
<svg id="brand-logo" xmlns="http://www.w3.org/2000/svg" version="1.1" viewBox="0 0 510.24 100">
  <!-- Generator: Adobe Illustrator 29.5.1, SVG Export Plug-In . SVG Version: 2.1.0 Build 141)  -->
  <defs>
    <style>
      .st0 {
        fill: #f1b01d;
      }

      .st1, .st2, .st3, .st4 {
        isolation: isolate;
      }

      .st2 {
        fill: none;
        stroke: #f1b01d;
        stroke-miterlimit: 10;
      }

      .st2, .st3, .st4 {
        font-family: Ubuntu-Bold, Ubuntu;
        font-weight: 700;
      }

      .st2, .st4 {
        font-size: 74.94px;
      }

      .st5 {
        fill: #fff;
      }

      .st3 {
        fill: #f2b01d;
        font-size: 27px;
        letter-spacing: .13em;
      }

      .st4 {
        fill: #010101;
      }
    </style>
  </defs>
  <rect id="brand-logo-icon-bg" class="st0" y="0" width="100" height="100"/>
  <path id="brand-logo-icon" class="st5" d="M84,51.94l-13.81-23.92c-1.34-2.32-3.81-3.75-6.49-3.75h-27.66c-2.68,0-5.15,1.43-6.49,3.75l-13.55,23.46c-1.34,2.32-1.34,5.17,0,7.49l8.24,14.26c.89,1.55,2.54,2.5,4.33,2.5h43.13c1.78,0,3.43-.95,4.33-2.5l7.97-13.8c1.34-2.32,1.34-5.17,0-7.49ZM67.43,54.92l-4.04,7c-.45.78-1.29,1.27-2.19,1.27h-21.88c-.91,0-1.74-.48-2.19-1.27l-4.18-7.24c-.68-1.18-.68-2.62,0-3.8l6.87-11.9c.68-1.18,1.93-1.9,3.29-1.9h14.03c1.36,0,2.61.72,3.29,1.9l7,12.13c.68,1.18.68,2.62,0,3.8h0Z"/>
  <g id="brand-text-strapline" class="st1">
    <g id="brand-text-strapline-font" class="st1">
      <text class="st3" transform="translate(130 89.25)"><tspan x="0" y="0">BITCOIN BLOCKCHAIN</tspan></text>
    </g>
  </g>
  <g id="brand-text-name" class="st1">
    <g id="brand-text-name-bg-font" class="st1">
      <text class="st4" transform="translate(126 62.44)"><tspan x="0" y="0">BITCHAIN</tspan></text>
    </g>
    <g id="brand-text-name-stroke-font" class="st1">
      <text class="st2" transform="translate(126 62.44)"><tspan x="0" y="0">BITCHAIN</tspan></text>
    </g>
  </g>
</svg>
