<?xml version="1.0" encoding="UTF-8"?>
<svg id="brand-logo" xmlns="http://www.w3.org/2000/svg" version="1.1" viewBox="0 0 453.54 100">
  <!-- Generator: Adobe Illustrator 29.5.1, SVG Export Plug-In . SVG Version: 2.1.0 Build 141)  -->
  <defs>
    <style>
      .st0 {
        fill: #010101;
      }

      .st1 {
        fill: #f1b01d;
      }

      .st2 {
        fill: #fff;
      }
    </style>
  </defs>
  <g id="brand-logo-large-svg">
    <g id="brand-text-name-svg-sv">
      <path id="brand-text-name-svg-icon" class="st0" d="M415.44,53.01l-21.49-37.19c-2.08-3.6-5.93-5.82-10.1-5.82h-43.03c-4.16,0-8.01,2.22-10.1,5.82l-21.08,36.47c-2.08,3.6-2.08,8.04,0,11.65l12.82,22.18c1.39,2.4,3.95,3.88,6.73,3.88h67.11c2.78,0,5.34-1.48,6.73-3.88l12.4-21.46c2.08-3.6,2.08-8.04,0-11.65h0ZM389.66,57.65l-6.29,10.88c-.7,1.22-2.01,1.97-3.41,1.97h-34.04c-1.41,0-2.71-.75-3.41-1.97l-6.5-11.25c-1.06-1.83-1.06-4.08,0-5.91l10.69-18.5c1.06-1.83,3.01-2.95,5.12-2.95h21.83c2.11,0,4.06,1.13,5.12,2.95l10.9,18.86c1.06,1.83,1.06,4.08,0,5.91h0Z"/>
      <path id="brand-text-name-svg-sv-v" class="st0" d="M283.63,88.31c-.43.84-.84,1.69-2.12,1.69h-24.57c12.72-25.95,27.76-51.48,41.09-77.45.84-2.12,1.65-2.55,4.19-2.55h20.82c2.16,0,2.94.01,1.67,2.55h0"/>
      <path id="brand-text-name-svg-sv-s" class="st0" d="M156.77,33.14c-.75,1.33-.58,4.64.17,5.97,2.24,3.56,9.46,3.23,14.44,3.23l29.69.75c7.38.33,22.73-.99,28.29,9.2,3.4,6.38,3.07,20.89-.91,27.35-6.14,10.28-24.39,10.36-32.6,10.36h-40.07c-4.73,0-15.59-.66-20.98-8.54-2.57-3.98-2.82-12.51-2.74-17.82h23.97c.58,7.38,4.89,6.8,9.46,6.8h28.45c3.4,0,10.45.17,12.61-2.49,1-1.33,1-3.98,0-6.22-1.58-3.23-7.88-2.73-14.68-2.98l-31.69-.66c-7.72-.08-20.74.08-25.71-9.45-3.4-6.3-3.4-23.12.25-29.42,6.06-10.11,17.75-9.2,28.95-9.2h66.17c6.18,0,11.86,3.44,14.71,8.92l21.32,40.89-13.03,24.45-26.53-50.28c-1.44-2.72-4.26-4.42-7.34-4.42h-51.57c-3.4,0-8.38-.58-10.62,3.56h0Z"/>
    </g>
  </g>
  <g id="brand-icon">
    <rect id="brand-icon-background" class="st1" y="0" width="100" height="100"/>
    <path id="brand-icon-foreground" class="st2" d="M84,51.94l-13.81-23.92c-1.34-2.32-3.81-3.75-6.49-3.75h-27.66c-2.68,0-5.15,1.43-6.49,3.75l-13.55,23.46c-1.34,2.32-1.34,5.17,0,7.49l8.24,14.26c.89,1.55,2.54,2.5,4.33,2.5h43.13c1.78,0,3.43-.95,4.33-2.5l7.97-13.8c1.34-2.32,1.34-5.17,0-7.49ZM67.43,54.92l-4.04,7c-.45.78-1.29,1.27-2.19,1.27h-21.88c-.91,0-1.74-.48-2.19-1.27l-4.18-7.24c-.68-1.18-.68-2.62,0-3.8l6.87-11.9c.68-1.18,1.93-1.9,3.29-1.9h14.03c1.36,0,2.61.72,3.29,1.9l7,12.13c.68,1.18.68,2.62,0,3.8h0Z"/>
  </g>
</svg>
