<?xml version="1.0" encoding="UTF-8"?>
<svg id="brand-logo" xmlns="http://www.w3.org/2000/svg" version="1.1" viewBox="0 0 351.5 100">
  <!-- Generator: Adobe Illustrator 29.5.1, SVG Export Plug-In . SVG Version: 2.1.0 Build 141)  -->
  <defs>
    <style>
      .st0 {
        fill: #010101;
      }

      .st1 {
        fill: #f2b01d;
        font-family: Ubuntu-Bold, Ubuntu;
        font-size: 27px;
        font-weight: 700;
        letter-spacing: .06em;
      }

      .st1, .st2 {
        isolation: isolate;
      }

      .st3 {
        fill: #f1b01d;
      }

      .st4 {
        fill: #fff;
      }
    </style>
  </defs>
  <g id="brand-logo-small-svg">
    <g id="brand-text-name-svg-sv">
      <path id="brand-text-name-svg-icon" class="st0" d="M319.93,38.52l-14.25-24.66c-1.38-2.39-3.93-3.86-6.7-3.86h-28.53c-2.76,0-5.31,1.47-6.7,3.86l-13.98,24.18c-1.38,2.39-1.38,5.33,0,7.72l8.5,14.71c.92,1.59,2.62,2.57,4.46,2.57h44.5c1.84,0,3.54-.98,4.46-2.57l8.22-14.23c1.38-2.39,1.38-5.33,0-7.72h.02ZM302.83,41.6l-4.17,7.21c-.46.81-1.33,1.31-2.26,1.31h-22.57c-.93,0-1.8-.5-2.26-1.31l-4.31-7.46c-.7-1.21-.7-2.71,0-3.92l7.09-12.27c.7-1.21,2-1.96,3.4-1.96h14.48c1.4,0,2.69.75,3.4,1.96l7.23,12.51c.7,1.21.7,2.71,0,3.92h-.03Z"/>
      <path id="brand-text-name-svg-sv-v" class="st0" d="M232.53,61.93c-.29.56-.56,1.12-1.41,1.12h-16.29c8.43-17.21,18.41-34.14,27.25-51.36.56-1.41,1.09-1.69,2.78-1.69h13.81c1.43,0,1.95,0,1.11,1.69h0"/>
      <path id="brand-text-name-svg-sv-s" class="st0" d="M148.41,25.34c-.5.88-.38,3.08.11,3.96,1.49,2.36,6.27,2.14,9.57,2.14l19.69.5c4.89.22,15.07-.66,18.76,6.1,2.25,4.23,2.04,13.85-.6,18.14-4.07,6.82-16.17,6.87-21.62,6.87h-26.57c-3.14,0-10.34-.44-13.91-5.66-1.7-2.64-1.87-8.3-1.82-11.82h15.89c.38,4.89,3.24,4.51,6.27,4.51h18.86c2.25,0,6.93.11,8.36-1.65.66-.88.66-2.64,0-4.12-1.05-2.14-5.23-1.81-9.73-1.98l-21.01-.44c-5.12-.05-13.75.05-17.05-6.27-2.25-4.18-2.25-15.33.17-19.51,4.02-6.7,11.77-6.1,19.2-6.1h43.88c4.1,0,7.86,2.28,9.75,5.91l14.14,27.11-8.64,16.21-17.59-33.34c-.95-1.8-2.82-2.93-4.87-2.93h-34.2c-2.25,0-5.56-.38-7.04,2.36h0Z"/>
    </g>
  </g>
  <g id="brand-icon">
    <rect id="brand-icon-background" class="st3" y="0" width="100" height="100"/>
    <path id="brand-icon-foreground" class="st4" d="M84,51.94l-13.81-23.92c-1.34-2.32-3.81-3.75-6.49-3.75h-27.66c-2.68,0-5.15,1.43-6.49,3.75l-13.55,23.46c-1.34,2.32-1.34,5.17,0,7.49l8.24,14.26c.89,1.55,2.54,2.5,4.33,2.5h43.13c1.78,0,3.43-.95,4.33-2.5l7.97-13.8c1.34-2.32,1.34-5.17,0-7.49ZM67.43,54.92l-4.04,7c-.45.78-1.29,1.27-2.19,1.27h-21.88c-.91,0-1.74-.48-2.19-1.27l-4.18-7.24c-.68-1.18-.68-2.62,0-3.8l6.87-11.9c.68-1.18,1.93-1.9,3.29-1.9h14.03c1.36,0,2.61.72,3.29,1.9l7,12.13c.68,1.18.68,2.62,0,3.8h0Z"/>
  </g>
  <g id="brand-text-strapline" class="st2">
    <g id="brand-text-strapline-font" class="st2">
      <g class="st2">
        <text class="st1" transform="translate(130 89.25)"><tspan x="0" y="0">VIBE CODING</tspan></text>
      </g>
    </g>
  </g>
</svg>
